<?xml version="1.0" standalone="no"?>
<!DOCTYPE svg PUBLIC "-//W3C//DTD SVG 20010904//EN"
 "http://www.w3.org/TR/2001/REC-SVG-20010904/DTD/svg10.dtd">
<svg version="1.0" xmlns="http://www.w3.org/2000/svg"
 width="612.000000pt" height="408.000000pt" viewBox="0 0 612.000000 408.000000"
 preserveAspectRatio="xMidYMid meet">

<g transform="translate(0.000000,408.000000) scale(0.10000,-0.100000)"
fill="#000000" stroke="none">
<path d="M3130 3763 c-111 -6 -408 -56 -525 -88 -208 -57 -325 -95 -375 -120
-27 -14 -55 -25 -63 -25 -35 0 -324 -161 -492 -274 -107 -72 -208 -157 -329
-280 -112 -113 -236 -265 -236 -289 0 -5 -29 -53 -64 -106 -178 -268 -285
-567 -311 -871 -7 -78 5 -151 29 -180 7 -8 37 -87 66 -175 68 -206 72 -215
135 -310 178 -265 430 -476 690 -577 207 -80 452 -137 687 -158 174 -16 627
-8 793 14 66 8 170 20 230 26 268 27 385 40 450 53 96 19 436 125 455 141 8 7
40 21 70 31 30 9 60 23 65 29 6 6 25 22 42 35 18 12 36 34 40 49 9 40 40 76
76 88 44 15 49 44 8 44 -19 0 -31 5 -31 13 0 8 70 60 156 116 151 99 278 200
319 251 11 13 43 51 70 84 119 139 230 350 274 517 30 117 38 364 17 502 -27
169 -92 387 -154 511 -26 54 -154 226 -199 267 -36 34 -141 89 -169 89 -32 0
-38 -29 -14 -62 11 -15 20 -42 20 -61 0 -33 23 -73 115 -202 87 -120 133 -241
165 -431 25 -153 26 -297 2 -384 -36 -128 -103 -275 -164 -361 -34 -46 -67
-99 -75 -118 -16 -37 -102 -127 -208 -217 -184 -156 -370 -273 -680 -426 -135
-68 -248 -112 -520 -203 -126 -43 -248 -86 -271 -96 -86 -36 -362 -58 -689
-53 -357 6 -728 87 -985 215 -121 60 -251 159 -307 232 -26 34 -53 69 -60 77
-87 109 -182 291 -206 395 -35 160 -38 186 -32 278 12 161 53 286 177 546 90
188 399 548 603 703 199 151 456 289 683 367 114 39 337 94 487 120 273 47
353 53 630 54 246 1 285 -2 437 -26 174 -27 347 -78 416 -120 70 -44 222 -81
236 -59 10 17 -23 102 -56 143 -74 92 -187 148 -433 214 -231 61 -362 75 -683
73 -142 -1 -282 -3 -312 -5z"/>
</g>
</svg>
