<?xml version="1.0" standalone="no"?>
<!DOCTYPE svg PUBLIC "-//W3C//DTD SVG 20010904//EN"
 "http://www.w3.org/TR/2001/REC-SVG-20010904/DTD/svg10.dtd">
<svg version="1.0" xmlns="http://www.w3.org/2000/svg"
 width="521.000000pt" height="479.000000pt" viewBox="0 0 521.000000 479.000000"
 preserveAspectRatio="xMidYMid meet">

<g transform="translate(0.000000,479.000000) scale(0.100000,-0.100000)"
fill="#000000" stroke="none">
<path d="M2500 4210 c-1105 -36 -1282 -47 -1447 -91 -126 -33 -156 -47 -174
-80 -14 -27 -35 -366 -44 -709 -3 -140 -13 -390 -21 -555 -8 -165 -19 -435
-24 -600 -5 -165 -16 -417 -25 -560 -16 -287 -30 -577 -45 -997 -12 -318 -7
-363 45 -415 20 -20 53 -38 91 -49 65 -19 82 -19 809 11 1154 46 1659 62 2652
85 479 11 521 16 570 61 38 37 52 108 63 339 6 118 14 296 20 395 5 99 12 243
15 320 3 77 14 334 25 570 25 544 56 1295 71 1713 13 371 9 402 -48 452 -19
17 -46 35 -59 40 -25 10 -307 38 -664 66 -310 25 -1122 27 -1810 4z m1760
-354 c206 -15 404 -30 440 -34 l65 -7 6 -65 c7 -75 -6 -899 -21 -1265 -5 -137
-15 -365 -20 -505 -25 -615 -77 -1411 -94 -1439 -3 -4 -112 -11 -243 -15 -131
-4 -434 -13 -673 -21 -239 -8 -658 -22 -930 -30 -272 -8 -695 -22 -940 -30
-245 -8 -534 -17 -642 -21 l-198 -6 5 44 c2 23 7 178 10 343 15 829 50 2449
61 2802 l6 202 52 5 c28 3 254 12 501 21 374 13 848 30 1360 49 50 2 268 2
485 1 308 -2 478 -9 770 -29z"/>
</g>
</svg>
