<?xml version="1.0" standalone="no"?>
<!DOCTYPE svg PUBLIC "-//W3C//DTD SVG 20010904//EN"
 "http://www.w3.org/TR/2001/REC-SVG-20010904/DTD/svg10.dtd">
<svg version="1.0" xmlns="http://www.w3.org/2000/svg"
 width="312.000000pt" height="238.000000pt" viewBox="0 0 312.000000 238.000000"
 preserveAspectRatio="xMidYMid meet">

<g transform="translate(0.000000,238.000000) scale(0.100000,-0.100000)"
fill="#000000" stroke="none">
<path d="M1686 2201 c-4 -5 -1 -32 5 -60 l11 -50 -46 -56 c-25 -31 -69 -95
-98 -143 -29 -48 -91 -146 -138 -219 -195 -301 -390 -624 -597 -988 -44 -77
-108 -184 -142 -238 -63 -99 -72 -137 -32 -137 21 0 37 -16 60 -63 l16 -32 90
0 c50 0 187 8 305 18 274 21 719 35 813 25 39 -4 212 -10 384 -12 349 -6 343
-7 343 62 -1 48 -18 86 -127 267 -197 329 -312 547 -407 771 -85 202 -183 447
-221 553 -81 227 -131 311 -186 311 -15 0 -30 -4 -33 -9z m123 -373 c144 -400
338 -805 606 -1263 46 -77 86 -150 89 -162 l7 -23 -167 0 c-92 0 -275 5 -408
11 -198 9 -306 8 -601 -5 -198 -9 -393 -21 -434 -26 -41 -6 -76 -8 -79 -6 -2
3 20 44 50 93 30 48 76 129 103 178 96 178 286 495 460 770 149 235 268 427
315 508 6 9 14 17 18 17 4 0 23 -42 41 -92z"/>
</g>
</svg>
